<?xml version="1.0" encoding="UTF-8" standalone="no"?>
<!-- Uploaded to: SVG Repo, www.svgrepo.com, Generator: SVG Repo Mixer Tools -->

<svg
   width="15"
   height="15"
   viewBox="0 0 0.45 0.45000001"
   fill="none"
   version="1.1"
   id="svg332"
   sodipodi:docname="filter-remove.svg"
   inkscape:version="1.2.1 (9c6d41e410, 2022-07-14)"
   xmlns:inkscape="http://www.inkscape.org/namespaces/inkscape"
   xmlns:sodipodi="http://sodipodi.sourceforge.net/DTD/sodipodi-0.dtd"
   xmlns="http://www.w3.org/2000/svg"
   xmlns:svg="http://www.w3.org/2000/svg">
  <defs
     id="defs336" />
  <sodipodi:namedview
     id="namedview334"
     pagecolor="#ffffff"
     bordercolor="#000000"
     borderopacity="0.25"
     inkscape:showpageshadow="2"
     inkscape:pageopacity="0.0"
     inkscape:pagecheckerboard="true"
     inkscape:deskcolor="#d1d1d1"
     showgrid="false"
     inkscape:zoom="54.266667"
     inkscape:cx="7.5"
     inkscape:cy="7.5"
     inkscape:window-width="1920"
     inkscape:window-height="1017"
     inkscape:window-x="-8"
     inkscape:window-y="-8"
     inkscape:window-maximized="1"
     inkscape:current-layer="svg332" />
  <g
     id="g457"
     style="fill:#ff0000"
     transform="scale(0.83333325,0.74999986)">
    <path
       d="M 0.53733891,0.01447059 C 0.53525453,0.01013365 0.53210995,0.00649376 0.52824549,0.00394341 0.52438103,0.00139306 0.51994394,2.9647059e-5 0.51541523,0 H 0.28636177 c -0.006508,0 -0.0127517,0.00278894 -0.0173524,0.00775306 -0.004604,0.00496412 -0.007189,0.01169718 -0.007189,0.01871753 0,0.0070203 0.002585,0.01375341 0.007189,0.01871753 0.004601,0.0049641 0.010844,0.0077531 0.0173524,0.0077531 h 0.17997057 l -0.0605356,0.09035294 c -0.003819,0.005616 -0.005412,0.0126388 -0.004431,0.0195226 9.8166e-4,0.006884 0.00446,0.0130645 0.009666,0.0171833 0.005206,0.004119 0.0117177,0.005838 0.0180985,0.004778 0.006385,-0.001059 0.0121142,-0.004809 0.0159329,-0.0104255 L 0.5350484,0.042 c 0.002768,-0.0038799 0.004453,-0.0085299 0.004856,-0.01340541 4.0566e-4,-0.0048755 -4.8437e-4,-0.0097747 -0.002565,-0.014124 z"
       fill="#000000"
       id="path328"
       style="fill:#ff0000;stroke-width:0.0339837" />
    <path
       d="m 0.16038237,0.00776647 c 0,0 0,0 -0.001636,0 C 0.15688037,0.00603 0.15478437,0.00460271 0.15252937,0.00353118 0.15022037,0.00257435 0.14779537,0.00198 0.14533037,0.00176647 H 0.02458639 C 0.02005669,0.00179612 0.01562059,0.00315953 0.01175678,0.00570988 0.00789298,0.00826024 0.00474873,0.01190012 0.00266271,0.01623706 5.8028e-4,0.02058636 -3.10083e-4,0.02548556 9.56688e-5,0.03036106 5.014207e-4,0.03523659 0.00218627,0.03988624 0.00495324,0.04376647 L 0.18001552,0.3 v 0.27352942 c 8.475e-5,0.006995 0.002698,0.0136729 0.007282,0.0186177 0.004584,0.004945 0.0107773,0.007765 0.0172598,0.007853 h 0.1308877 c 0.006482,-8.824e-5 0.0126765,-0.002908 0.0172608,-0.007853 0.004584,-0.004945 0.007196,-0.0116224 0.007281,-0.0186177 V 0.3 l 0.001963,-0.003176 0.11976224,0.12776471 c 0.002264,0.002478 0.004967,0.004436 0.007945,0.005771 0.002978,0.001334 0.006175,0.002012 0.009398,0.001994 0.003226,3.882e-5 0.006427,-6.3177e-4 0.009408,-0.001966 0.002981,-0.001334 0.005681,-0.003307 0.007935,-0.005799 0.004594,-0.004962 0.007176,-0.0116894 0.007176,-0.0187059 0,-0.007013 -0.002582,-0.01374 -0.007176,-0.0187059 z M 0.3158115,0.27564706 c -0.003207,0.004436 -0.004934,0.009907 -0.004908,0.0155294 V 0.54705883 H 0.2290984 V 0.29117647 c 2.618e-5,-0.005622 -0.001702,-0.0110929 -0.004908,-0.0155294 L 0.07366928,0.05294294 h 0.05955389 l 0.19338656,0.20646883 z"
       fill="#000000"
       id="path330"
       style="fill:#ff0000;stroke-width:0.0339837" />
  </g>
</svg>
