<?xml version="1.0" encoding="UTF-8" standalone="no"?>
<svg
   id="Outlined"
   viewBox="0 0 18 21"
   version="1.1"
   sodipodi:docname="trash.svg"
   width="18"
   height="21"
   inkscape:version="1.2.1 (9c6d41e410, 2022-07-14)"
   xmlns:inkscape="http://www.inkscape.org/namespaces/inkscape"
   xmlns:sodipodi="http://sodipodi.sourceforge.net/DTD/sodipodi-0.dtd"
   xmlns="http://www.w3.org/2000/svg"
   xmlns:svg="http://www.w3.org/2000/svg"
   xmlns:rdf="http://www.w3.org/1999/02/22-rdf-syntax-ns#"
   xmlns:cc="http://creativecommons.org/ns#"
   xmlns:dc="http://purl.org/dc/elements/1.1/">
  <metadata
     id="metadata18">
    <rdf:RDF>
      <cc:Work
         rdf:about="">
        <dc:format>image/svg+xml</dc:format>
        <dc:type
           rdf:resource="http://purl.org/dc/dcmitype/StillImage" />
      </cc:Work>
    </rdf:RDF>
  </metadata>
  <defs
     id="defs16" />
  <sodipodi:namedview
     pagecolor="#ffffff"
     bordercolor="#666666"
     borderopacity="1"
     objecttolerance="10"
     gridtolerance="10"
     guidetolerance="10"
     inkscape:pageopacity="0"
     inkscape:pageshadow="2"
     inkscape:window-width="1920"
     inkscape:window-height="1017"
     id="namedview14"
     showgrid="false"
     fit-margin-top="0"
     fit-margin-left="0"
     fit-margin-right="0"
     fit-margin-bottom="0"
     inkscape:zoom="38.761905"
     inkscape:cx="9.0036855"
     inkscape:cy="10.5"
     inkscape:window-x="-8"
     inkscape:window-y="-8"
     inkscape:window-maximized="1"
     inkscape:current-layer="g850"
     inkscape:document-rotation="0"
     inkscape:showpageshadow="2"
     inkscape:pagecheckerboard="true"
     inkscape:deskcolor="#d1d1d1" />
  <g
     id="Fill"
     transform="translate(-4,-2)"
     style="fill:#d40000">
    <g
       id="g850"
       transform="matrix(0.75,0,0,0.75,1,0.5)">
      <g
         id="g837" />
      <g
         id="g258">
        <g
           id="g245"
           style="fill:#d40000">
          <g
             id="g842"
             style="fill:#ff2a2a;fill-opacity:1">
            <rect
               height="12"
               width="2"
               x="15"
               y="12"
               id="rect4-2"
               style="fill:#ff2a2a;fill-opacity:1" />
            <rect
               height="12"
               width="2"
               x="19"
               y="12"
               id="rect6-3"
               style="fill:#ff2a2a;fill-opacity:1" />
            <rect
               height="12"
               width="2"
               x="11"
               y="12"
               id="rect8-0"
               style="fill:#ff2a2a;fill-opacity:1" />
          </g>
        </g>
        <path
           d="M 20,6 V 5 A 3,3 0 0 0 17,2 H 15 A 3,3 0 0 0 12,5 V 6 H 4 v 2 h 2 v 19 a 3,3 0 0 0 3,3 h 14 a 3,3 0 0 0 3,-3 V 8 h 2 V 6 Z M 14,5 a 1,1 0 0 1 1,-1 h 2 a 1,1 0 0 1 1,1 v 1 h -4 z m 10,22 a 1,1 0 0 1 -1,1 H 9 A 1,1 0 0 1 8,27 V 8 h 16 z"
           id="path10-2"
           style="fill:#ff2a2a;fill-opacity:1" />
      </g>
    </g>
  </g>
</svg>
