<?xml version="1.0" encoding="UTF-8" standalone="no"?>
<svg
   version="1"
   viewBox="0 0 25 25"
   enable-background="new 0 0 48 48"
   id="svg44"
   sodipodi:docname="availability.svg"
   width="25"
   height="25"
   inkscape:version="1.2.1 (9c6d41e410, 2022-07-14)"
   xmlns:inkscape="http://www.inkscape.org/namespaces/inkscape"
   xmlns:sodipodi="http://sodipodi.sourceforge.net/DTD/sodipodi-0.dtd"
   xmlns="http://www.w3.org/2000/svg"
   xmlns:svg="http://www.w3.org/2000/svg">
  <defs
     id="defs48" />
  <sodipodi:namedview
     id="namedview46"
     pagecolor="#ffffff"
     bordercolor="#111111"
     borderopacity="1"
     inkscape:showpageshadow="0"
     inkscape:pageopacity="0"
     inkscape:pagecheckerboard="true"
     inkscape:deskcolor="#d1d1d1"
     showgrid="false"
     inkscape:zoom="23.023397"
     inkscape:cx="15.049908"
     inkscape:cy="12.509014"
     inkscape:window-width="1920"
     inkscape:window-height="1017"
     inkscape:window-x="1352"
     inkscape:window-y="-8"
     inkscape:window-maximized="1"
     inkscape:current-layer="svg44" />
  <rect
     style="opacity:1;fill:#6d4135;fill-opacity:1;stroke-width:1.9896"
     id="rect462"
     width="25"
     height="25"
     x="0"
     y="0"
     ry="1.9375328" />
  <g
     id="g488"
     transform="matrix(0.04882812,0,0,0.04882812,29.869778,-1.0355131)" />
  <g
     id="g490"
     transform="matrix(0.04882812,0,0,0.04882812,29.869778,-1.0355131)" />
  <g
     id="g492"
     transform="matrix(0.04882812,0,0,0.04882812,29.869778,-1.0355131)" />
  <g
     id="g494"
     transform="matrix(0.04882812,0,0,0.04882812,29.869778,-1.0355131)" />
  <g
     id="g496"
     transform="matrix(0.04882812,0,0,0.04882812,29.869778,-1.0355131)" />
  <g
     id="g498"
     transform="matrix(0.04882812,0,0,0.04882812,29.869778,-1.0355131)" />
  <g
     id="g500"
     transform="matrix(0.04882812,0,0,0.04882812,29.869778,-1.0355131)" />
  <g
     id="g502"
     transform="matrix(0.04882812,0,0,0.04882812,29.869778,-1.0355131)" />
  <g
     id="g504"
     transform="matrix(0.04882812,0,0,0.04882812,29.869778,-1.0355131)" />
  <g
     id="g506"
     transform="matrix(0.04882812,0,0,0.04882812,29.869778,-1.0355131)" />
  <g
     id="g508"
     transform="matrix(0.04882812,0,0,0.04882812,29.869778,-1.0355131)" />
  <g
     id="g510"
     transform="matrix(0.04882812,0,0,0.04882812,29.869778,-1.0355131)" />
  <g
     id="g512"
     transform="matrix(0.04882812,0,0,0.04882812,29.869778,-1.0355131)" />
  <g
     id="g514"
     transform="matrix(0.04882812,0,0,0.04882812,29.869778,-1.0355131)" />
  <g
     id="g516"
     transform="matrix(0.04882812,0,0,0.04882812,29.869778,-1.0355131)" />
  <rect
     class="cls-2"
     x="1.5"
     y="1.5926347"
     width="22"
     height="4.4165869"
     id="rect10"
     style="fill:#ed7c69;stroke-width:0.0440551" />
  <g
     id="g14155"
     transform="matrix(1,0,0,0.95352123,-22.203497,5.9868324)"
     style="fill:#ffe9a6">
    <rect
       class="cls-1"
       x="1.3890464"
       y="7.3240027"
       width="22"
       height="17"
       id="rect8"
       style="fill:#ffe9a6;stroke-width:0.0483182"
       transform="translate(22.314451,-5.8890001)" />
  </g>
  <g
     fill="#90a4ae"
     id="g42"
     transform="matrix(0.63157895,0,0,0.66666667,-2.6578948,-3.2065984)">
    <rect
       x="13"
       y="20"
       width="4"
       height="4"
       id="rect18"
       style="fill:#20c997;fill-opacity:1" />
    <rect
       x="19"
       y="20"
       width="4"
       height="4"
       id="rect20"
       style="fill:#f44336;fill-opacity:1" />
    <rect
       x="25"
       y="20"
       width="4"
       height="4"
       id="rect22"
       style="fill:#20c997;fill-opacity:1" />
    <rect
       x="31"
       y="20"
       width="4"
       height="4"
       id="rect24"
       style="fill:#f44336;fill-opacity:1" />
    <rect
       x="13"
       y="26"
       width="4"
       height="4"
       id="rect26"
       style="fill:#20c997;fill-opacity:1" />
    <rect
       x="19"
       y="26"
       width="4"
       height="4"
       id="rect28"
       style="fill:#f44336;fill-opacity:1" />
    <rect
       x="25"
       y="26"
       width="4"
       height="4"
       id="rect30"
       style="fill:#f44336;fill-opacity:1" />
    <rect
       x="31"
       y="26"
       width="4"
       height="4"
       id="rect32"
       style="fill:#20c997;fill-opacity:1" />
    <rect
       x="13"
       y="32"
       width="4"
       height="4"
       id="rect34"
       style="fill:#f44336;fill-opacity:1" />
    <rect
       x="19"
       y="32"
       width="4"
       height="4"
       id="rect36"
       style="fill:#20c997;fill-opacity:1" />
    <rect
       x="25"
       y="32"
       width="4"
       height="4"
       id="rect38"
       style="fill:#20c997;fill-opacity:1" />
    <rect
       x="31"
       y="32"
       width="4"
       height="4"
       id="rect40"
       style="fill:#f44336;fill-opacity:1" />
  </g>
</svg>
