<?xml version="1.0" encoding="UTF-8" standalone="no"?>
<!-- Uploaded to: SVG Repo, www.svgrepo.com, Generator: SVG Repo Mixer Tools -->

<svg
   height="24"
   width="24"
   version="1.1"
   id="Layer_1"
   viewBox="0 0 15.36 15.36"
   xml:space="preserve"
   sodipodi:docname="check-in.svg"
   inkscape:version="1.2.1 (9c6d41e410, 2022-07-14)"
   xmlns:inkscape="http://www.inkscape.org/namespaces/inkscape"
   xmlns:sodipodi="http://sodipodi.sourceforge.net/DTD/sodipodi-0.dtd"
   xmlns="http://www.w3.org/2000/svg"
   xmlns:svg="http://www.w3.org/2000/svg"><defs
   id="defs39">
	
	
	
	
	
	
	
	
	
	
	
</defs><sodipodi:namedview
   id="namedview37"
   pagecolor="#ffffff"
   bordercolor="#000000"
   borderopacity="0.25"
   inkscape:showpageshadow="2"
   inkscape:pageopacity="0.0"
   inkscape:pagecheckerboard="true"
   inkscape:deskcolor="#d1d1d1"
   showgrid="false"
   inkscape:zoom="33.916667"
   inkscape:cx="12"
   inkscape:cy="12"
   inkscape:window-width="1920"
   inkscape:window-height="1017"
   inkscape:window-x="-8"
   inkscape:window-y="-8"
   inkscape:window-maximized="1"
   inkscape:current-layer="Layer_1" />
<path
   style="fill:#f4a58c;stroke-width:0.0382904"
   d="M 15.359938,4.5809563 V 0.61219826 C 15.359938,0.27412852 15.180606,0 14.959236,0 h -1.306006 -0.818008 -2.51375 v 15.359953 h 0.821571 c -1.24e-4,-0.01164 -5.89e-4,-0.023 -5.89e-4,-0.0346 1.550258,-1.050855 1.798336,-1.098193 3.455794,0 0,0.01164 -4.64e-4,0.023 -5.88e-4,0.0346 h 0.361638 c 0.221339,0 0.400702,-0.274129 0.400702,-0.612199 v -3.968758 c -1.12023,0 -2.028385,-1.3874439 -2.028385,-3.0990907 -6.2e-5,-1.7114574 0.908062,-3.098949 2.028323,-3.098949 z"
   id="path2"
   sodipodi:nodetypes="cssccccccccssccc" />
<path
   style="fill:#fc7a4c;stroke-width:0.0382904"
   d="M 0,0.61219826 V 4.5809563 c 1.1202924,0 2.0284466,1.3874916 2.0284466,3.0989964 0,1.7115994 -0.9081233,3.0990913 -2.0284466,3.0990913 v 3.968758 C 0,15.085872 0.17942521,15.36 0.40070185,15.36 H 10.321441 V 4.7328818e-5 H 0.40070185 C 0.17942521,4.7328818e-5 0,0.27412852 0,0.61219826 Z"
   id="path4" />
<path
   style="fill:#f26438;stroke-width:0.0382904"
   d="M 3.9067733,5.3295563 C 3.9067733,3.4140169 4.2025523,1.6043522 4.7274144,0 H 0.39816164 C 0.17831,4.7328818e-5 0,0.27412852 0,0.61219826 V 4.1756323 c 0,0.1830205 0.09057999,0.3365079 0.20978376,0.3552028 1.03680634,0.1631898 1.81866284,1.488444 1.81866284,3.0825733 0,1.5941292 -0.7818875,2.9194306 -1.81869382,3.0826676 C 0.09057999,10.714866 0,10.868259 0,11.051279 v 3.629978 c 0,0.337549 0.17973499,0.612198 0.40070185,0.612198 H 7.4166241 C 5.3019654,13.157269 3.9067733,9.4926464 3.9067733,5.3295563 Z"
   id="path6" />


<path
   style="fill:#231f20;stroke-width:0.0382904"
   d="m 10.571868,4.591416 c 0,-0.2113705 -0.112078,-0.3826062 -0.250427,-0.3826062 -0.138348,0 -0.250427,0.1712357 -0.250427,0.3826062 v 1.0203146 c 0,0.2113706 0.112079,0.3826062 0.250427,0.3826062 0.138349,0 0.250427,-0.1712356 0.250427,-0.3826062 z"
   id="path12" /><path
   style="fill:#231f20;stroke-width:0.0382904"
   d="m 10.571868,2.2957316 c 0,-0.2113705 -0.112078,-0.3826062 -0.250427,-0.3826062 -0.138348,0 -0.250427,0.1712357 -0.250427,0.3826062 v 1.0203147 c 0,0.2113705 0.112079,0.3826062 0.250427,0.3826062 0.138349,0 0.250427,-0.1712357 0.250427,-0.3826062 z"
   id="path14" /><path
   style="fill:#231f20;stroke-width:0.0382904"
   d="m 10.321441,11.09591 c -0.138348,0 -0.250427,0.171236 -0.250427,0.382606 v 1.020314 c 0,0.211372 0.112079,0.382607 0.250427,0.382607 0.138349,0 0.250427,-0.171235 0.250427,-0.382607 v -1.020314 c 0,-0.21137 -0.112078,-0.382606 -0.250427,-0.382606 z"
   id="path16" /><path
   style="fill:#231f20;stroke-width:0.0382904"
   d="m 10.571868,9.182832 c 0,-0.2113705 -0.112078,-0.3826062 -0.250427,-0.3826062 -0.138348,0 -0.250427,0.1712357 -0.250427,0.3826062 v 1.020315 c 0,0.21137 0.112079,0.382606 0.250427,0.382606 0.138349,0 0.250427,-0.171236 0.250427,-0.382606 z"
   id="path18" /><path
   style="fill:#231f20;stroke-width:0.0382904"
   d="m 10.571868,6.8871004 c 0,-0.2113706 -0.112078,-0.3826062 -0.250427,-0.3826062 -0.138348,0 -0.250427,0.1712356 -0.250427,0.3826062 V 7.907415 c 0,0.2113705 0.112079,0.3826061 0.250427,0.3826061 0.138349,0 0.250427,-0.1712356 0.250427,-0.3826061 z"
   id="path20" /><path
   style="fill:#231f20;stroke-width:0.0382904"
   d="M 8.4176507,9.7167011 H 3.7762625 c -0.1383482,0 -0.250427,0.1712355 -0.250427,0.3826059 0,0.211371 0.1120788,0.382606 0.250427,0.382606 h 4.6413573 c 0.1383482,0 0.250427,-0.171235 0.250427,-0.382606 C 8.6680778,9.8879366 8.555937,9.7167011 8.4176507,9.7167011 Z"
   id="path22" /><path
   style="fill:#231f20;stroke-width:0.0382904"
   d="M 8.4176507,8.105628 H 3.7762625 c -0.1383482,0 -0.250427,0.1712357 -0.250427,0.3826062 0,0.2113705 0.1120788,0.3826062 0.250427,0.3826062 h 4.6413573 c 0.1383482,0 0.250427,-0.1712357 0.250427,-0.3826062 0,-0.2113705 -0.1121098,-0.3826062 -0.2503961,-0.3826062 z"
   id="path24" /><path
   style="fill:#231f20;stroke-width:0.0382904"
   d="M 8.4176507,6.494555 H 3.7762625 c -0.1383482,0 -0.250427,0.1712357 -0.250427,0.3826062 0,0.2113706 0.1120788,0.3826062 0.250427,0.3826062 h 4.6413573 c 0.1383482,0 0.250427,-0.1712356 0.250427,-0.3826062 0,-0.2113705 -0.1121098,-0.3826062 -0.2503961,-0.3826062 z"
   id="path26" /><path
   style="fill:#231f20;stroke-width:0.0382904"
   d="m 3.7762625,5.6486471 h 2.4663842 c 0.1383482,0 0.250427,-0.1712357 0.250427,-0.3826061 0,-0.2113705 -0.1120788,-0.3826062 -0.250427,-0.3826062 H 3.7762625 c -0.1383482,0 -0.250427,0.1712357 -0.250427,0.3826062 0,0.2113704 0.1121098,0.3826061 0.250427,0.3826061 z"
   id="path28" />
</svg>
