<?xml version="1.0" encoding="UTF-8" standalone="no"?>
<svg
   id="Layer_1"
   data-name="Layer 1"
   viewBox="0 0 25 25"
   version="1.1"
   sodipodi:docname="calendar.svg"
   inkscape:version="1.2.1 (9c6d41e410, 2022-07-14)"
   width="25"
   height="25"
   xmlns:inkscape="http://www.inkscape.org/namespaces/inkscape"
   xmlns:sodipodi="http://sodipodi.sourceforge.net/DTD/sodipodi-0.dtd"
   xmlns="http://www.w3.org/2000/svg"
   xmlns:svg="http://www.w3.org/2000/svg"
   xmlns:rdf="http://www.w3.org/1999/02/22-rdf-syntax-ns#"
   xmlns:cc="http://creativecommons.org/ns#"
   xmlns:dc="http://purl.org/dc/elements/1.1/">
  <defs
     id="defs919" />
  <sodipodi:namedview
     id="namedview917"
     pagecolor="#ffffff"
     bordercolor="#666666"
     borderopacity="1.0"
     inkscape:pageshadow="2"
     inkscape:pageopacity="0.0"
     inkscape:pagecheckerboard="0"
     showgrid="false"
     inkscape:zoom="36.333333"
     inkscape:cx="10.183486"
     inkscape:cy="11.009174"
     inkscape:window-width="1920"
     inkscape:window-height="1017"
     inkscape:window-x="1352"
     inkscape:window-y="-8"
     inkscape:window-maximized="1"
     inkscape:current-layer="Layer_1"
     inkscape:showpageshadow="2"
     inkscape:deskcolor="#d1d1d1" />
  <title
     id="title882">Artboard 24</title>
  <rect
     x="4.5454545"
     y="7.954545"
     width="2.2727273"
     height="2.2727273"
     id="rect884"
     style="fill:#fcfcfc;fill-opacity:1;stroke-width:1.13636" />
  <rect
     x="9.090909"
     y="7.954545"
     width="2.2727273"
     height="2.2727273"
     id="rect886"
     style="fill:#fcfcfc;fill-opacity:1;stroke-width:1.13636" />
  <rect
     x="13.636364"
     y="7.954545"
     width="2.2727273"
     height="2.2727273"
     id="rect888"
     style="fill:#fcfcfc;fill-opacity:1;stroke-width:1.13636" />
  <rect
     x="18.181818"
     y="7.954545"
     width="2.2727273"
     height="2.2727273"
     id="rect890"
     style="fill:#fcfcfc;fill-opacity:1;stroke-width:1.13636" />
  <rect
     x="4.5454545"
     y="11.363636"
     width="2.2727273"
     height="2.2727273"
     id="rect892"
     style="fill:#fcfcfc;fill-opacity:1;stroke-width:1.13636" />
  <rect
     x="9.090909"
     y="11.363636"
     width="2.2727273"
     height="2.2727273"
     id="rect894"
     style="fill:#fcfcfc;fill-opacity:1;stroke-width:1.13636" />
  <rect
     x="13.636364"
     y="11.363636"
     width="2.2727273"
     height="2.2727273"
     id="rect896"
     style="fill:#fcfcfc;fill-opacity:1;stroke-width:1.13636" />
  <rect
     x="18.181818"
     y="11.363636"
     width="2.2727273"
     height="2.2727273"
     id="rect898"
     style="fill:#fcfcfc;fill-opacity:1;stroke-width:1.13636" />
  <rect
     x="4.5454545"
     y="14.772727"
     width="2.2727273"
     height="2.2727273"
     id="rect900"
     style="fill:#fcfcfc;fill-opacity:1;stroke-width:1.13636" />
  <rect
     x="9.090909"
     y="14.772727"
     width="2.2727273"
     height="2.2727273"
     id="rect902"
     style="fill:#fcfcfc;fill-opacity:1;stroke-width:1.13636" />
  <rect
     x="13.636364"
     y="14.772727"
     width="2.2727273"
     height="2.2727273"
     id="rect904"
     style="fill:#fcfcfc;fill-opacity:1;stroke-width:1.13636" />
  <rect
     x="18.181818"
     y="14.772727"
     width="2.2727273"
     height="2.2727273"
     id="rect906"
     style="fill:#fcfcfc;fill-opacity:1;stroke-width:1.13636" />
  <rect
     x="4.5454545"
     y="18.181818"
     width="2.2727273"
     height="2.2727273"
     id="rect908"
     style="fill:#fcfcfc;fill-opacity:1;stroke-width:1.13636" />
  <rect
     x="9.090909"
     y="18.181818"
     width="2.2727273"
     height="2.2727273"
     id="rect910"
     style="fill:#fcfcfc;fill-opacity:1;stroke-width:1.13636" />
  <rect
     x="13.636364"
     y="18.181818"
     width="2.2727273"
     height="2.2727273"
     id="rect912"
     style="fill:#fcfcfc;fill-opacity:1;stroke-width:1.13636" />
  <path
     d="M 21.590909,0 H 17.045455 V 3.4090909 H 14.772727 V 2.6931818 A 1.5568182,1.5568182 0 0 0 13.215909,1.1363636 H 11.784091 A 1.5568182,1.5568182 0 0 0 10.227273,2.6931818 V 3.4090909 H 7.9545455 V 0 H 3.4090909 A 3.4090909,3.4090909 0 0 0 0,3.4090909 V 21.590909 A 3.4090909,3.4090909 0 0 0 3.4090909,25 H 21.590909 A 3.4090909,3.4090909 0 0 0 25,21.590909 V 3.4090909 A 3.4090909,3.4090909 0 0 0 21.590909,0 Z m 1.136364,21.590909 a 1.1363636,1.1363636 0 0 1 -1.136364,1.136364 H 3.4090909 A 1.1363636,1.1363636 0 0 1 2.2727273,21.590909 V 3.4090909 A 1.1363636,1.1363636 0 0 1 3.4090909,2.2727273 H 5.6818182 V 5.6818182 H 19.318182 V 2.2727273 h 2.272727 a 1.1363636,1.1363636 0 0 1 1.136364,1.1363636 z"
     id="path914"
     style="fill:#fcfcfc;fill-opacity:1;stroke-width:1.13636" />
  <metadata
     id="metadata2201">
    <rdf:RDF>
      <cc:Work
         rdf:about="">
        <dc:title>Artboard 24</dc:title>
      </cc:Work>
    </rdf:RDF>
  </metadata>
</svg>
