<?xml version="1.0" encoding="UTF-8" standalone="no"?>
<svg
   width="25"
   height="25"
   viewBox="0 0 25 25"
   aria-hidden="true"
   role="img"
   class="iconify iconify--emojione-monotone"
   preserveAspectRatio="xMidYMid"
   version="1.1"
   id="svg2918"
   sodipodi:docname="ok.svg"
   inkscape:version="1.2.1 (9c6d41e410, 2022-07-14)"
   xmlns:inkscape="http://www.inkscape.org/namespaces/inkscape"
   xmlns:sodipodi="http://sodipodi.sourceforge.net/DTD/sodipodi-0.dtd"
   xmlns="http://www.w3.org/2000/svg"
   xmlns:svg="http://www.w3.org/2000/svg">
  <defs
     id="defs2922" />
  <sodipodi:namedview
     id="namedview2920"
     pagecolor="#ffffff"
     bordercolor="#000000"
     borderopacity="0.25"
     inkscape:showpageshadow="2"
     inkscape:pageopacity="0.0"
     inkscape:pagecheckerboard="0"
     inkscape:deskcolor="#d1d1d1"
     showgrid="false"
     inkscape:zoom="32.56"
     inkscape:cx="12.5"
     inkscape:cy="12.5"
     inkscape:window-width="1920"
     inkscape:window-height="1017"
     inkscape:window-x="-8"
     inkscape:window-y="-8"
     inkscape:window-maximized="1"
     inkscape:current-layer="svg2918" />
  <path
     d="m 8.33875,9.724167 c -0.7145833,0 -1.2908333,0.229583 -1.7283333,0.689166 C 6.1733333,10.87375 5.95375,11.5675 5.95375,12.494167 c 0,0.912083 0.2254167,1.604166 0.6741667,2.075 0.4495833,0.47125 1.0195833,0.70625 1.7108333,0.70625 0.691667,0 1.259167,-0.23375 1.703333,-0.700834 0.442917,-0.467916 0.664584,-1.16875 0.664584,-2.102916 0,-0.92375 -0.215834,-1.612917 -0.6475,-2.067084 C 9.6275,9.950417 9.05375,9.724167 8.33875,9.724167"
     fill="currentColor"
     id="path2914"
     style="stroke-width:0.416667;fill:#fcfcfc;fill-opacity:1" />
  <path
     d="M 20.833333,0 H 4.1666667 C 1.8654167,0 0,1.8654167 0,4.1666667 V 20.833333 C 0,23.134583 1.8654167,25 4.1666667,25 H 20.833333 C 23.134583,25 25,23.134583 25,20.833333 V 4.1666667 C 25,1.8654167 23.134583,0 20.833333,0 m -9.465,15.564167 c -0.753333,0.735416 -1.760833,1.1025 -3.02375,1.1025 -1.2774997,0 -2.2929163,-0.365417 -3.047083,-1.097084 -0.75375,-0.730833 -1.13125,-1.7375 -1.13125,-3.02 0,-0.82125 0.13125,-1.510416 0.3925,-2.067083 a 3.7945833,3.7945833 0 0 1 0.8004167,-1.105 c 0.3379166,-0.32625 0.7079166,-0.567917 1.11,-0.725 C 7.0054167,8.44 7.6220833,8.333333 8.32125,8.333333 c 1.265833,0 2.279167,0.367917 3.039167,1.104167 0.759583,0.7375 1.139166,1.76125 1.139166,3.072917 0,1.30125 -0.376666,2.319583 -1.13125,3.05375 m 7.291667,1.1025 -2.285833,-3.91125 -1.362084,1.3925 v 2.51875 H 13.332917 V 8.333333 h 1.679166 v 3.700417 l 3.3925,-3.700417 h 2.258334 l -3.132084,3.245417 3.302084,5.087917 H 18.66"
     fill="currentColor"
     id="path2916"
     style="stroke-width:0.416667;fill:#fcfcfc;fill-opacity:1" />
</svg>
