<?xml version="1.0" encoding="UTF-8" standalone="no"?>
<svg
   shape-rendering="geometricPrecision"
   text-rendering="geometricPrecision"
   image-rendering="optimizeQuality"
   fill-rule="evenodd"
   clip-rule="evenodd"
   viewBox="0 0 25.000002 24.999996"
   version="1.1"
   id="svg13729"
   sodipodi:docname="pending.svg"
   width="25.000002"
   height="24.999996"
   inkscape:version="1.2.1 (9c6d41e410, 2022-07-14)"
   xmlns:inkscape="http://www.inkscape.org/namespaces/inkscape"
   xmlns:sodipodi="http://sodipodi.sourceforge.net/DTD/sodipodi-0.dtd"
   xmlns="http://www.w3.org/2000/svg"
   xmlns:svg="http://www.w3.org/2000/svg">
  <defs
     id="defs13733" />
  <sodipodi:namedview
     id="namedview13731"
     pagecolor="#ffffff"
     bordercolor="#000000"
     borderopacity="0.25"
     inkscape:showpageshadow="2"
     inkscape:pageopacity="0.0"
     inkscape:pagecheckerboard="0"
     inkscape:deskcolor="#d1d1d1"
     showgrid="false"
     inkscape:zoom="32.560004"
     inkscape:cx="12.499999"
     inkscape:cy="12.499999"
     inkscape:window-width="1920"
     inkscape:window-height="1017"
     inkscape:window-x="1352"
     inkscape:window-y="-8"
     inkscape:window-maximized="1"
     inkscape:current-layer="svg13729" />
  <path
     fill-rule="nonzero"
     d="m 13.931933,23.01635 c 0.714152,-0.09281 1.2784,0.592004 1.036367,1.257764 -0.126497,0.33752 -0.420324,0.574419 -0.78487,0.621799 a 12.984561,12.735255 0 0 1 -2.530408,0.07522 C 8.5394407,24.765496 5.7381137,23.44228 3.6628906,21.406902 1.3999165,19.187377 0,16.120877 0,12.734443 0,9.347518 1.3999165,6.2815067 3.6628906,4.0619822 5.9258649,1.8424577 9.0518967,0.46941992 12.505123,0.46941992 c 1.197225,0 2.364072,0.16900428 3.476137,0.48405563 A 12.406716,12.168504 0 0 1 18.601309,2.0266039 L 18.354792,1.3935705 c -0.20568,-0.53045852 0.06574,-1.12392733 0.606083,-1.32614633 0.540843,-0.20173056 1.14593,0.06447562 1.352108,0.59493417 l 1.041843,2.67378456 a 1.0652513,1.0447982 0 0 1 0.06772,0.3174936 c 0.08168,0.4982209 -0.222611,0.9920454 -0.728593,1.1424885 L 17.903587,5.6333313 C 17.35129,5.7974511 16.768116,5.4916804 16.600784,4.9504758 16.433451,4.4092713 16.745207,3.836806 17.297006,3.6726862 l 0.229585,-0.068871 a 10.493646,10.292166 0 0 0 -2.081693,-0.83623 C 14.520087,2.505775 13.53402,2.365101 12.505123,2.365101 c -2.9193555,0 -5.5628122,1.1605612 -7.4756828,3.0371926 -1.9133686,1.8761431 -3.0966491,4.4683562 -3.0966491,7.3321494 0,2.863303 1.1832805,5.455517 3.0966491,7.332148 1.7335856,1.700299 4.0667798,2.812993 6.6619288,3.006419 0.742041,0.0552 1.505496,0.03712 2.240564,-0.05666 z M 10.590759,7.7458849 c 0,-0.5231317 0.432774,-0.9475963 0.966645,-0.9475963 0.533372,0 0.966146,0.4244646 0.966146,0.9475963 v 5.7695911 l 4.026441,1.735958 c 0.488054,0.210522 0.709171,0.769311 0.494528,1.247993 -0.214644,0.478195 -0.784372,0.695556 -1.272425,0.485033 L 11.21726,15.020885 c -0.36604,-0.135301 -0.626501,-0.481614 -0.626501,-0.887518 z m 6.708245,14.2574171 c -0.777898,0.390272 -0.674312,1.509316 0.163846,1.755007 0.242532,0.0674 0.484069,0.04689 0.710167,-0.06399 0.623513,-0.307237 1.222126,-0.669179 1.783388,-1.075572 0.273908,-0.200265 0.416339,-0.515805 0.386956,-0.849417 -0.0747,-0.737074 -0.93029,-1.110739 -1.538365,-0.673086 a 10.365856,10.166829 0 0 1 -1.505992,0.907055 z m 3.942276,-3.397183 c -0.440245,0.64378 0.05429,1.509317 0.845129,1.475125 0.309266,-0.01613 0.586162,-0.164608 0.759471,-0.418603 0.391439,-0.569535 0.72959,-1.165934 1.019434,-1.791153 0.279385,-0.617402 -0.155879,-1.30905 -0.844631,-1.337868 -0.394925,-0.0127 -0.752499,0.203683 -0.916844,0.556835 -0.24552,0.52997 -0.530883,1.033075 -0.862559,1.515664 z m 1.775916,-4.86107 c -0.03486,0.3722 0.149404,0.720955 0.477596,0.909985 0.615545,0.342893 1.374517,-0.04103 1.44673,-0.731212 0.06624,-0.684809 0.07669,-1.362781 0.02889,-2.049055 -0.0239,-0.329705 -0.21813,-0.620334 -0.516939,-0.774196 -0.670326,-0.340939 -1.464657,0.169004 -1.41137,0.907055 0.04084,0.582234 0.03137,1.156165 -0.0249,1.737423 z M 22.21639,8.6465898 c 0.216636,0.4899171 0.797819,0.7102088 1.292347,0.486498 C 23.985335,8.918169 24.198983,8.3706146 23.992308,7.8977934 23.7184,7.2681792 23.388715,6.6629875 23.011719,6.0866144 22.538108,5.3724981 21.423553,5.5805785 21.25124,6.4163194 21.20393,6.6620106 21.24874,6.9018403 21.3867,7.11334 c 0.319725,0.4894285 0.597616,0.9983952 0.82969,1.5332498 z"
     id="path13727"
     style="fill:#fcfcfc;fill-opacity:1;stroke-width:0.0493208" />
</svg>
