<?xml version="1.0" encoding="UTF-8" standalone="no"?>
<svg
   id="Layer_1"
   data-name="Layer 1"
   viewBox="0 0 25 25"
   version="1.1"
   sodipodi:docname="calendar.svg"
   inkscape:version="1.2.1 (9c6d41e410, 2022-07-14)"
   width="25"
   height="25"
   xmlns:inkscape="http://www.inkscape.org/namespaces/inkscape"
   xmlns:sodipodi="http://sodipodi.sourceforge.net/DTD/sodipodi-0.dtd"
   xmlns="http://www.w3.org/2000/svg"
   xmlns:svg="http://www.w3.org/2000/svg"
   xmlns:rdf="http://www.w3.org/1999/02/22-rdf-syntax-ns#"
   xmlns:cc="http://creativecommons.org/ns#"
   xmlns:dc="http://purl.org/dc/elements/1.1/">
  <defs
     id="defs919" />
  <sodipodi:namedview
     id="namedview917"
     pagecolor="#ffffff"
     bordercolor="#666666"
     borderopacity="1.0"
     inkscape:pageshadow="2"
     inkscape:pageopacity="0.0"
     inkscape:pagecheckerboard="0"
     showgrid="false"
     inkscape:zoom="32.56"
     inkscape:cx="12.5"
     inkscape:cy="12.5"
     inkscape:window-width="1920"
     inkscape:window-height="1017"
     inkscape:window-x="-8"
     inkscape:window-y="-8"
     inkscape:window-maximized="1"
     inkscape:current-layer="g4632"
     inkscape:showpageshadow="2"
     inkscape:deskcolor="#d1d1d1" />
  <title
     id="title882">Artboard 24</title>
  <g
     id="g4632"
     transform="translate(-1,-1)">
    <rect
       x="5.5454545"
       y="8.954545"
       width="2.2727273"
       height="2.2727273"
       id="rect884"
       style="fill:#a8cbfe;fill-opacity:1;stroke:none;stroke-width:1.13636" />
    <rect
       x="10.090909"
       y="8.954545"
       width="2.2727273"
       height="2.2727273"
       id="rect886"
       style="fill:#a8cbfe;fill-opacity:1;stroke:none;stroke-width:1.13636" />
    <rect
       x="14.636364"
       y="8.954545"
       width="2.2727273"
       height="2.2727273"
       id="rect888"
       style="fill:#a8cbfe;fill-opacity:1;stroke:none;stroke-width:1.13636" />
    <rect
       x="19.181818"
       y="8.954545"
       width="2.2727273"
       height="2.2727273"
       id="rect890"
       style="fill:#a8cbfe;fill-opacity:1;stroke:none;stroke-width:1.13636" />
    <rect
       x="5.5454545"
       y="12.363636"
       width="2.2727273"
       height="2.2727273"
       id="rect892"
       style="fill:#a8cbfe;fill-opacity:1;stroke:none;stroke-width:1.13636" />
    <rect
       x="10.090909"
       y="12.363636"
       width="2.2727273"
       height="2.2727273"
       id="rect894"
       style="fill:#a8cbfe;fill-opacity:1;stroke:none;stroke-width:1.13636" />
    <rect
       x="14.636364"
       y="12.363636"
       width="2.2727273"
       height="2.2727273"
       id="rect896"
       style="fill:#a8cbfe;fill-opacity:1;stroke:none;stroke-width:1.13636" />
    <rect
       x="19.181818"
       y="12.363636"
       width="2.2727273"
       height="2.2727273"
       id="rect898"
       style="fill:#a8cbfe;fill-opacity:1;stroke:none;stroke-width:1.13636" />
    <rect
       x="5.5454545"
       y="15.772727"
       width="2.2727273"
       height="2.2727273"
       id="rect900"
       style="fill:#a8cbfe;fill-opacity:1;stroke:none;stroke-width:1.13636" />
    <rect
       x="10.090909"
       y="15.772727"
       width="2.2727273"
       height="2.2727273"
       id="rect902"
       style="fill:#a8cbfe;fill-opacity:1;stroke:none;stroke-width:1.13636" />
    <rect
       x="14.636364"
       y="15.772727"
       width="2.2727273"
       height="2.2727273"
       id="rect904"
       style="fill:#a8cbfe;fill-opacity:1;stroke:none;stroke-width:1.13636" />
    <rect
       x="19.181818"
       y="15.772727"
       width="2.2727273"
       height="2.2727273"
       id="rect906"
       style="fill:#a8cbfe;fill-opacity:1;stroke:none;stroke-width:1.13636" />
    <rect
       x="5.5454545"
       y="19.181818"
       width="2.2727273"
       height="2.2727273"
       id="rect908"
       style="fill:#a8cbfe;fill-opacity:1;stroke:none;stroke-width:1.13636" />
    <rect
       x="10.090909"
       y="19.181818"
       width="2.2727273"
       height="2.2727273"
       id="rect910"
       style="fill:#a8cbfe;fill-opacity:1;stroke:none;stroke-width:1.13636" />
    <rect
       x="14.636364"
       y="19.181818"
       width="2.2727273"
       height="2.2727273"
       id="rect912"
       style="fill:#a8cbfe;fill-opacity:1;stroke:none;stroke-width:1.13636" />
    <path
       d="M 22.590909,1 H 18.045455 V 4.4090909 H 15.772727 V 3.6931818 A 1.5568182,1.5568182 0 0 0 14.215909,2.1363636 H 12.784091 A 1.5568182,1.5568182 0 0 0 11.227273,3.6931818 V 4.4090909 H 8.9545455 V 1 H 4.4090909 A 3.4090909,3.4090909 0 0 0 1,4.4090909 V 22.590909 A 3.4090909,3.4090909 0 0 0 4.4090909,26 H 22.590909 A 3.4090909,3.4090909 0 0 0 26,22.590909 V 4.4090909 A 3.4090909,3.4090909 0 0 0 22.590909,1 Z m 1.136364,21.590909 a 1.1363636,1.1363636 0 0 1 -1.136364,1.136364 H 4.4090909 A 1.1363636,1.1363636 0 0 1 3.2727273,22.590909 V 4.4090909 A 1.1363636,1.1363636 0 0 1 4.4090909,3.2727273 H 6.6818182 V 6.6818182 H 20.318182 V 3.2727273 h 2.272727 a 1.1363636,1.1363636 0 0 1 1.136364,1.1363636 z"
       id="path914"
       style="fill:#a8cbfe;fill-opacity:1;stroke:none;stroke-width:1.13636" />
  </g>
  <metadata
     id="metadata1901">
    <rdf:RDF>
      <cc:Work
         rdf:about="">
        <dc:title>Artboard 24</dc:title>
      </cc:Work>
    </rdf:RDF>
  </metadata>
</svg>
