<?xml version="1.0" encoding="UTF-8" standalone="no"?>
<!-- Generator: Adobe Illustrator 18.0.0, SVG Export Plug-In . SVG Version: 6.00 Build 0)  -->

<svg
   version="1.1"
   id="Capa_1"
   x="0px"
   y="0px"
   viewBox="0 0 24 24"
   xml:space="preserve"
   sodipodi:docname="registrars.svg"
   width="24"
   height="24"
   inkscape:version="1.2.1 (9c6d41e410, 2022-07-14)"
   xmlns:inkscape="http://www.inkscape.org/namespaces/inkscape"
   xmlns:sodipodi="http://sodipodi.sourceforge.net/DTD/sodipodi-0.dtd"
   xmlns="http://www.w3.org/2000/svg"
   xmlns:svg="http://www.w3.org/2000/svg"><defs
   id="defs59" /><sodipodi:namedview
   id="namedview57"
   pagecolor="#ffffff"
   bordercolor="#000000"
   borderopacity="0.25"
   inkscape:showpageshadow="2"
   inkscape:pageopacity="0.0"
   inkscape:pagecheckerboard="true"
   inkscape:deskcolor="#d1d1d1"
   showgrid="false"
   inkscape:zoom="33.916667"
   inkscape:cx="11.985258"
   inkscape:cy="12"
   inkscape:window-width="1920"
   inkscape:window-height="1017"
   inkscape:window-x="-8"
   inkscape:window-y="-8"
   inkscape:window-maximized="1"
   inkscape:current-layer="Capa_1" />
<g
   id="g24"
   transform="matrix(0.4049249,0,0,0.42870923,0,-0.70479797)">
	<g
   id="g6">
		<path
   style="fill:#8697cb"
   d="M 53.566,44.427 44.014,39.651 C 42.78,39.034 42,37.772 42,36.392 v -3.748 c 0.268,-0.305 0.576,-0.698 0.904,-1.162 1.302,-1.838 2.286,-3.861 2.969,-5.984 C 47.098,25.121 48,23.989 48,22.644 v -4 c 0,-0.88 -0.391,-1.667 -1,-2.217 v -5.783 c 0,0 1.187,-9 -11,-9 -12.188,0 -11,9 -11,9 v 5.783 c -0.609,0.55 -1,1.337 -1,2.217 v 4 c 0,1.054 0.554,1.981 1.383,2.517 0.999,4.352 3.617,7.483 3.617,7.483 v 3.655 c 0,1.333 -0.728,2.56 -1.899,3.198 L 18.18,44.363 C 15.603,45.77 14,48.47 14,51.406 v 3.239 h 44 v -3.043 c 0,-3.039 -1.717,-5.816 -4.434,-7.175 z"
   id="path2" />
		<path
   style="fill:#556080"
   d="m 18.18,44.364 5.946,-3.243 c -0.034,-0.033 -0.005,-0.043 0.065,-0.036 l 2.91,-1.587 C 28.272,38.859 29,37.633 29,36.299 v -3.655 c 0,0 -1.062,-1.275 -2.092,-3.323 v 0 c 0,-0.001 -0.001,-0.002 -0.001,-0.003 C 26.772,29.05 26.639,28.767 26.508,28.474 26.49,28.433 26.472,28.394 26.454,28.353 26.321,28.05 26.191,27.737 26.068,27.409 26.06,27.388 26.053,27.365 26.045,27.344 25.937,27.054 25.836,26.755 25.739,26.448 25.713,26.364 25.687,26.281 25.662,26.197 25.561,25.859 25.466,25.515 25.384,25.159 24.554,24.626 24,23.698 24,22.644 v -4 c 0,-0.88 0.391,-1.667 1,-2.217 V 10.78 C 23.587,9.683 21.397,8.644 18,8.644 c -9.563,0 -10,8 -10,8 v 4.995 c -0.526,0.475 -1,1.154 -1,1.914 v 3.455 c 0,0.911 0.479,1.711 1.194,2.174 0.863,3.758 3.76,6.463 3.76,6.463 v 3.157 c 0,1.151 -0.629,2.211 -1.64,2.762 L 3.61,45.766 C 1.385,46.98 0,49.312 0,51.847 v 2.797 h 14 v -3.239 c 0,-2.935 1.603,-5.635 4.18,-7.041 z"
   id="path4" />
	</g>
	<g
   id="g22">
		<polygon
   style="fill:#eddcc7"
   points="35.84,55.43 40.487,50.783 37.836,48.133 37.828,48.14 "
   id="polygon8" />
		<path
   style="fill:#d75a4a"
   d="m 57.086,34.184 -1.247,-1.247 c -0.775,-0.775 -2.032,-0.775 -2.807,0 l -3.582,3.582 2.65,2.651 z"
   id="path10" />
		
			<rect
   x="43.094002"
   y="35.438999"
   transform="matrix(0.7071,0.7071,-0.7071,0.7071,44.0369,-19.0122)"
   style="fill:#f29c21"
   width="3.7490001"
   height="16.424"
   id="rect12" />
		<polygon
   style="fill:#d6c4b1"
   points="43.493,53.79 40.487,50.783 35.84,55.43 35.707,55.918 43.485,53.797 "
   id="polygon14" />
		<path
   style="fill:#a34740"
   d="m 55.107,42.176 3.582,-3.582 c 0.775,-0.775 0.775,-2.032 0,-2.807 L 57.087,34.185 52.1,39.17 Z"
   id="path16" />
		
			<rect
   x="45.671001"
   y="38.266998"
   transform="matrix(-0.7071,-0.7071,0.7071,-0.7071,48.7273,113.1428)"
   style="fill:#e18c25"
   width="4.2509999"
   height="16.424"
   id="rect18" />
		<path
   style="fill:#5e5e5e"
   d="m 35,57.626 c -0.256,0 -0.512,-0.098 -0.707,-0.293 -0.391,-0.391 -0.391,-1.023 0,-1.414 L 36.5,53.712 c 0.391,-0.391 1.023,-0.391 1.414,0 0.391,0.391 0.391,1.023 0,1.414 l -2.207,2.207 C 35.512,57.528 35.256,57.626 35,57.626 Z"
   id="path20" />
	</g>
</g>
<g
   id="g26"
   transform="matrix(0.4049249,0,0,0.42870923,0,-0.70479797)">
</g>
<g
   id="g28"
   transform="matrix(0.4049249,0,0,0.42870923,0,-0.70479797)">
</g>
<g
   id="g30"
   transform="matrix(0.4049249,0,0,0.42870923,0,-0.70479797)">
</g>
<g
   id="g32"
   transform="matrix(0.4049249,0,0,0.42870923,0,-0.70479797)">
</g>
<g
   id="g34"
   transform="matrix(0.4049249,0,0,0.42870923,0,-0.70479797)">
</g>
<g
   id="g36"
   transform="matrix(0.4049249,0,0,0.42870923,0,-0.70479797)">
</g>
<g
   id="g38"
   transform="matrix(0.4049249,0,0,0.42870923,0,-0.70479797)">
</g>
<g
   id="g40"
   transform="matrix(0.4049249,0,0,0.42870923,0,-0.70479797)">
</g>
<g
   id="g42"
   transform="matrix(0.4049249,0,0,0.42870923,0,-0.70479797)">
</g>
<g
   id="g44"
   transform="matrix(0.4049249,0,0,0.42870923,0,-0.70479797)">
</g>
<g
   id="g46"
   transform="matrix(0.4049249,0,0,0.42870923,0,-0.70479797)">
</g>
<g
   id="g48"
   transform="matrix(0.4049249,0,0,0.42870923,0,-0.70479797)">
</g>
<g
   id="g50"
   transform="matrix(0.4049249,0,0,0.42870923,0,-0.70479797)">
</g>
<g
   id="g52"
   transform="matrix(0.4049249,0,0,0.42870923,0,-0.70479797)">
</g>
<g
   id="g54"
   transform="matrix(0.4049249,0,0,0.42870923,0,-0.70479797)">
</g>
</svg>
